<svg xmlns="http://www.w3.org/2000/svg" width="24" height="24">
    <path d="M20.775 2.52a.81.81 0 0 1 0 1.14l-6.276 6.269a.81.81 0 0 0 0 1.141l6.273 6.271a.81.81 0 0 1 0 1.14l-2.285 2.277a.814.814 0 0 1-1.142 0l-6.271-6.271a.812.812 0 0 0-1.141 0l-6.276 6.267a.81.81 0 0 1-1.141 0l-2.282-2.28a.808.808 0 0 1 0-1.139l6.278-6.269a.81.81 0 0 0 0-1.14L.24 3.653a.81.81 0 0 1 0-1.14L2.524.235a.81.81 0 0 1 1.141.001l6.271 6.27a.808.808 0 0 0 1.141.001L17.353.24a.812.812 0 0 1 1.141 0l2.281 2.28z"/>
</svg>
