<svg xmlns="http://www.w3.org/2000/svg" width="16" height="16">
    <path d="M2.608.491V.468c-.004.011-.01.018-.014.023h.014z"/>
    <path d="M15.331 9.158a7.424 7.424 0 0 0-8.49-8.49A4.485 4.485 0 0 0 .668 6.841a7.42 7.42 0 0 0 8.491 8.49 4.486 4.486 0 0 0 6.172-6.173zm-3.809 2.217c-.313.453-.774.807-1.377 1.061-.604.254-1.318.381-2.144.381-.987 0-1.806-.172-2.452-.521a3.164 3.164 0 0 1-1.115-1.004c-.287-.419-.433-.828-.433-1.229 0-.234.09-.439.265-.606a.946.946 0 0 1 .674-.254c.22 0 .408.066.563.197.153.132.282.323.387.575.125.291.262.534.407.73.146.191.347.354.61.479.26.127.607.189 1.039.189.594 0 1.074-.13 1.439-.382.369-.257.547-.566.547-.942 0-.3-.096-.537-.291-.723a1.947 1.947 0 0 0-.771-.43 13.208 13.208 0 0 0-1.28-.321c-.717-.155-1.318-.339-1.804-.548-.487-.211-.875-.498-1.163-.862-.289-.365-.433-.821-.433-1.362 0-.514.151-.975.455-1.376.305-.402.745-.709 1.316-.924.57-.214 1.242-.319 2.011-.319.615 0 1.147.069 1.598.213.449.143.824.33 1.123.565.3.236.518.483.656.746.139.262.209.519.209.767a.896.896 0 0 1-.266.627.87.87 0 0 1-.661.277c-.235 0-.421-.054-.55-.169-.125-.11-.256-.289-.398-.537a2.401 2.401 0 0 0-.644-.806c-.243-.187-.645-.287-1.204-.286-.518 0-.932.104-1.243.312-.314.211-.464.453-.465.739a.71.71 0 0 0 .156.459c.105.132.251.243.439.339.188.095.379.172.571.224.194.055.517.135.965.24.561.122 1.072.256 1.53.405s.848.327 1.17.54c.325.213.579.483.762.81.182.328.272.729.272 1.199a2.569 2.569 0 0 1-.47 1.527z"/>
</svg>
