<svg xmlns="http://www.w3.org/2000/svg" width="16" height="16">
    <path d="M2.609.023V0a.078.078 0 0 1-.013.023h.013zM16 2.072a6.603 6.603 0 0 1-1.887.519A3.301 3.301 0 0 0 15.558.775a6.65 6.65 0 0 1-2.084.797A3.284 3.284 0 0 0 7.88 4.566a9.327 9.327 0 0 1-6.766-3.43 3.283 3.283 0 0 0 1.015 4.38 3.27 3.27 0 0 1-1.487-.411v.042a3.285 3.285 0 0 0 2.633 3.219 3.281 3.281 0 0 1-1.482.056 3.281 3.281 0 0 0 3.066 2.279A6.582 6.582 0 0 1 0 12.06a9.287 9.287 0 0 0 5.032 1.476c6.038 0 9.34-5.002 9.34-9.341 0-.143-.003-.284-.009-.426A6.62 6.62 0 0 0 16 2.072z"/>
</svg>
